# xmcd
#
# Track frame offsets:
# 150
# 18536
# 38151
# 58107
# 72035
# 93443
# 114275
# 140633
# 157066
# 174787
# 196525
# 212878
#
# Disc length: 3088 seconds
#
# Revision: 1
# Processed by: cddbd v1.5.2PL0 Copyright (c) Steve Scherf et al.
# Submitted via: CedeCatalogueitor 2.6.0.6 http://personales.ya.com/cdcatalogueitor
#
DISCID=9f0c0e0c
DTITLE=Joe Louis Walker - Hornet's Nest
DYEAR=2014
DGENRE=
TTITLE0=Hornet's Nest
TTITLE1=All I Wanted To Do
TTITLE2=As The Sun Goes Down
TTITLE3=Stick A Fork In Me
TTITLE4=Don't Let Go
TTITLE5=Love Enough
TTITLE6=Ramblin' Soul
TTITLE7=Ride On, Baby
TTITLE8=Soul City
TTITLE9=I'm Gonna Walk Outside
TTITLE10=Not In Kansas Anymore
TTITLE11=Keep The Faith
EXTD=
EXTT0=
EXTT1=
EXTT2=
EXTT3=
EXTT4=
EXTT5=
EXTT6=
EXTT7=
EXTT8=
EXTT9=
EXTT10=
EXTT11=
PLAYORDER=
